PathFileType	4	(X/Y/Z)	E:/Marcel_BSc/Marcel/30_01_2025/static_00_hjc.trc	
DataRate	CameraRate	NumFrames	NumMarkers	Units	OrigDataRate	OrigDataStartFrame	OrigNumFrames	
200.00	200.00	4	77	mm	200.00	119	158	
Frame#	Time	FHD			LBHD			RBHD			RBAR			LBAR			RASI			RSACR			LSACR			LASI			USACR			C7			CLAV			T10			RSHO			LSHO			LTHI1			LTHI3			LTHI2			LLFC			LMFC			LTIB1			LTIB2			LTIB3			LMMAL			LLMAL			LHEE			LMT1			LMT5			LMT3			RTHI1			RTHI2			RTHI3			RLFC			RMFC			RTIB1			RTIB3			RTIB2			RLMAL			RMMAL			RHEE			RMT5			RMT1			RMT3			LMEP			LLEP			LDUPA			LMUPA			LUUPA			LUL			LRAD			LRFIN			RUL			RRAD			RUFIN			RMEP			RLEP			RMUPA			RDUPA			RUUPA			*59			*60			*61			*62			*63			*64			*65			*66			*67			*68			*69			*70			LAJC			RAJC			LKJC			RKJC			LHJC			RHJC			
		X1	Y1	Z1	X2	Y2	Z2	X3	Y3	Z3	X4	Y4	Z4	X5	Y5	Z5	X6	Y6	Z6	X7	Y7	Z7	X8	Y8	Z8	X9	Y9	Z9	X10	Y10	Z10	X11	Y11	Z11	X12	Y12	Z12	X13	Y13	Z13	X14	Y14	Z14	X15	Y15	Z15	X16	Y16	Z16	X17	Y17	Z17	X18	Y18	Z18	X19	Y19	Z19	X20	Y20	Z20	X21	Y21	Z21	X22	Y22	Z22	X23	Y23	Z23	X24	Y24	Z24	X25	Y25	Z25	X26	Y26	Z26	X27	Y27	Z27	X28	Y28	Z28	X29	Y29	Z29	X30	Y30	Z30	X31	Y31	Z31	X32	Y32	Z32	X33	Y33	Z33	X34	Y34	Z34	X35	Y35	Z35	X36	Y36	Z36	X37	Y37	Z37	X38	Y38	Z38	X39	Y39	Z39	X40	Y40	Z40	X41	Y41	Z41	X42	Y42	Z42	X43	Y43	Z43	X44	Y44	Z44	X45	Y45	Z45	X46	Y46	Z46	X47	Y47	Z47	X48	Y48	Z48	X49	Y49	Z49	X50	Y50	Z50	X51	Y51	Z51	X52	Y52	Z52	X53	Y53	Z53	X54	Y54	Z54	X55	Y55	Z55	X56	Y56	Z56	X57	Y57	Z57	X58	Y58	Z58	X59	Y59	Z59	X60	Y60	Z60	X61	Y61	Z61	X62	Y62	Z62	X63	Y63	Z63	X64	Y64	Z64	X65	Y65	Z65	X66	Y66	Z66	X67	Y67	Z67	X68	Y68	Z68	X69	Y69	Z69	X70	Y70	Z70	X71	Y71	Z71	X72	Y72	Z72	X73	Y73	Z73	X74	Y74	Z74	X75	Y75	Z75	X76	Y76	Z76	X77	Y77	Z77	

119	0.590	101.60085	581.78009	1817.46924	134.04442	523.30524	1803.19434	130.31935	652.50983	1801.09814	1237.76233	1766.98950	37.49900	1248.00366	-457.97665	32.44137	101.83665	723.54614	1048.30017	310.88626	621.40485	1098.04419	306.82770	557.46429	1095.16370	96.35278	458.72849	1038.85864	302.60632	589.35730	1111.95557	279.07733	583.98218	1567.26013	116.74946	585.25647	1531.55103	282.67554	577.71381	1257.68506	239.96764	734.70612	1605.27405	223.70627	417.71945	1595.80493	229.05533	410.01443	706.98615	258.50589	428.60474	651.22559	211.51921	407.88852	643.81433	221.80122	415.07901	524.76544	174.92296	516.93768	506.31885	222.48849	400.07535	276.34763	269.64166	380.93390	274.86978	242.96628	391.79953	214.25107	268.12115	468.07410	92.40869	287.09827	380.54379	83.65497	344.06857	422.20609	39.05359	115.27328	434.39926	41.42903	145.15315	352.01913	26.11864	122.68438	388.92563	36.09014	208.19456	793.23602	674.71991	255.22350	773.89270	670.98254	226.48453	781.88000	613.12653	203.35301	778.39178	529.40210	179.62265	682.06689	508.74155	259.96048	811.53906	277.72339	291.49969	814.01563	219.50682	240.76932	809.93335	214.42621	292.80289	813.67657	75.45473	245.15517	736.37402	71.11264	339.70148	765.19159	30.54666	173.08759	862.66772	26.14680	109.42446	788.43567	42.53924	134.10289	828.96918	40.16213	161.60013	114.87514	1470.26660	234.36224	116.52282	1509.72974	260.15918	217.75429	1524.10022	227.44026	220.08934	1561.71375	236.26509	281.75827	1565.81213	171.46324	-167.03566	1563.59131	141.90648	-136.09053	1628.39355	168.11913	-235.59303	1657.54602	216.25336	1342.26880	1590.62158	195.31734	1308.96130	1657.63831	226.15945	1395.50549	1680.27502	178.32402	1045.53210	1484.33411	247.87764	1058.07410	1539.09680	246.69568	910.80768	1577.26514	254.59174	971.10278	1564.40857	281.46893	899.26239	1542.25281	70.63758	634.57916	1757.95056	124.54953	537.64551	1728.50256	76.53002	575.26794	1760.07996	77.92904	619.71313	1764.08569							926.12885	518.00684	571.57007	-201.23502	-470.11703	23.79624	144.04320	621.91284	1744.70251										277.60971	424.30894	88.03183	268.97903	775.02530	73.28369	198.36209	466.00835	515.54214	191.48783	730.22934	519.07182	201.59024	508.09639	1067.01117	206.36146	672.47549	1073.17218 
120	0.595	101.58929	581.78198	1817.46497	134.03947	523.33704	1803.19470	130.30899	652.53522	1801.09082	1237.76428	1766.97986	37.50052	1248.00269	-457.98123	32.44220	101.83531	723.54211	1048.32690	310.89615	621.40887	1098.04834	306.85416	557.45074	1095.17224	96.37418	458.73083	1038.86462	302.63019	589.34961	1111.95911	279.08221	583.98492	1567.26465	116.74295	585.26459	1531.56775	282.68442	577.74023	1257.69690	239.96512	734.71222	1605.28052	223.71841	417.72198	1595.80688	229.05396	410.00677	706.98962	258.52673	428.61905	651.22485	211.51732	407.88657	643.81512	221.81833	415.08469	524.76501	174.91110	516.95447	506.35690	222.48781	400.06192	276.35220	269.65430	380.93100	274.87021	242.97801	391.80099	214.24568	268.11139	468.08322	92.40144	287.09250	380.54425	83.65610	343.98264	422.33987	38.95241	115.27258	434.40155	41.42596	145.15450	352.01532	26.11732	122.68430	388.93091	36.08193	208.40887	792.99902	674.98059	255.23372	773.90680	670.96912	226.46753	781.88586	613.19159	203.35704	778.40643	529.39716	179.63963	682.06812	508.74545	259.98172	811.53412	277.71753	291.59534	814.08087	219.50848	240.77888	809.92804	214.42230	292.81400	813.66486	75.45216	245.15501	736.37665	71.11579	339.67889	765.24890	30.49402	173.11177	862.66919	26.13759	109.41497	788.41766	42.56590	134.08369	828.97583	40.17945	161.59950	114.87033	1470.26953	234.36049	116.52857	1509.73389	260.16943	217.74326	1524.11743	227.43678	220.08073	1561.73132	236.29565	281.74023	1565.83972	171.46547	-167.03642	1563.57129	141.93756	-136.10133	1628.39685	168.14137	-235.61169	1657.54053	216.25432	1342.28235	1590.59753	195.33299	1308.97314	1657.62170	226.17072	1395.52258	1680.26831	178.44145	1045.56799	1484.09216	247.87669	1058.07556	1539.06738	246.70743	910.82562	1577.25867	254.60385	971.11383	1564.39307	281.49091	899.26825	1542.24902				124.55946	537.63831	1728.50073	76.53407	575.26740	1760.08521	77.92221	619.72498	1764.05457	1234.99805	-220.81007	42.33261				926.10974	517.98157	571.37555	-201.39038	-469.89883	23.66694	143.45482	621.00189	1744.61084										277.60194	424.31374	88.02877	268.98450	775.02075	73.28398	198.36472	466.01958	515.56096	191.49834	730.23727	519.07130	201.61417	508.09079	1067.01843	206.36573	672.47549	1073.18762 
121	0.600	101.58022	581.78168	1817.45728	134.01506	523.35431	1803.18958	130.30220	652.55157	1801.08374	1237.76367	1766.97449	37.49697	1247.99402	-457.97922	32.42960	101.85126	723.50647	1048.32959	310.90717	621.41583	1098.03967	306.86353	557.44818	1095.16455	96.38515	458.72928	1038.87463	302.63074	589.35864	1111.95886	279.09256	583.98212	1567.26514	116.74062	585.27271	1531.56909	282.71048	577.73401	1257.71484	239.95427	734.73218	1605.28479	223.72667	417.72592	1595.81372	229.07547	409.99246	706.99518	258.54364	428.61188	651.23535	211.53693	407.89120	643.81775	221.82341	415.08676	524.77350	174.92221	516.97375	506.35968	222.44739	400.07874	276.40771	269.66031	380.92801	274.86850	242.96991	391.79602	214.24536	268.08560	468.08148	92.41196	287.09637	380.54337	83.65714	343.91101	422.35016	39.00430	115.27422	434.40405	41.42619	145.15152	352.01685	26.11553	122.67981	388.92474	36.08081	208.42793	792.98499	674.99243	255.22954	773.91589	671.00238	226.49326	781.89758	613.16675	203.38275	778.39264	529.40790	179.65550	682.07733	508.75290	259.98700	811.53235	277.71478	291.63870	814.06433	219.51950	240.78191	809.93170	214.42694	292.80960	813.68134	75.44502	245.16092	736.38470	71.11404	339.80301	765.18121	30.49135	173.11578	862.66150	26.13952	109.43317	788.42749	42.55461	134.08687	828.98480	40.16324	161.59381	114.86587	1470.28186	234.34642	116.52293	1509.73755	260.17636	217.74268	1524.13489	227.43330	220.07483	1561.73633	236.30084	281.73196	1565.84644	171.48782	-167.04456	1563.55823	141.95831	-136.10431	1628.38953	168.16771	-235.63188	1657.51563	216.25270	1342.29077	1590.57312	195.35521	1308.98828	1657.59534	226.17906	1395.52283	1680.23877	178.70717	1045.80640	1483.89941	247.85051	1058.12634	1539.03430	246.69901	910.84387	1577.25195	254.61526	971.13049	1564.37903	281.49512	899.28314	1542.24390	2071.51099	-1611.27881	-1494.18542	124.54823	537.64795	1728.49524	76.52597	575.28223	1760.10352										926.08496	518.03314	571.49292	-201.26271	-469.64102	23.69321	143.01839	620.33691	1744.60876										277.59099	424.31242	88.03455	268.98526	775.03302	73.27953	198.37281	466.03026	515.56659	191.51913	730.23499	519.08040	201.62434	508.08873	1067.01959	206.37922	672.46115	1073.18463 
122	0.605	101.55522	581.83301	1817.42322	134.00880	523.36920	1803.19275	130.28876	652.56885	1801.07141	1237.76819	1766.97229	37.49533	1247.94470	-457.96771	32.32600	101.85509	723.49628	1048.32727	310.90546	621.42432	1098.04089	306.86682	557.46564	1095.17358	96.38818	458.73291	1038.87354	302.65283	589.34857	1111.95605	279.10397	583.99774	1567.26733	116.73659	585.27356	1531.56799	282.72177	577.74097	1257.71960	239.93985	734.74963	1605.28638	223.73946	417.72699	1595.81799	229.09128	409.99265	706.99298	258.55078	428.60095	651.24030	211.54866	407.88965	643.82294	221.84250	415.08630	524.78088	174.92537	516.97339	506.35928	222.50958	400.03644	276.37323	269.67209	380.93387	274.87149	242.98517	391.81497	214.24388	268.07080	468.06198	92.45113	287.10059	380.54294	83.66065	343.92102	422.37698	38.95876	115.27306	434.39792	41.42503	145.14828	352.01611	26.11732	122.67712	388.92514	36.07767	208.43243	792.99402	674.99524	255.26913	773.90039	670.98938	226.53426	781.89801	613.11621	203.39096	778.39618	529.40662	179.66444	682.07477	508.75339	259.98871	811.54248	277.73184	291.59357	814.01282	219.49821	240.79309	809.93701	214.42676	292.80371	813.68097	75.44807	245.15547	736.38385	71.11852	339.89609	765.10138	30.51758	173.11537	862.66290	26.14924	109.42795	788.43152	42.55122	134.09836	828.97321	40.16998	161.56108	114.86822	1470.29956	234.35165	116.51076	1509.72595	260.18396	217.72101	1524.15942	227.43040	220.07478	1561.74609	236.28752	281.73212	1565.82898	171.48320	-167.04283	1563.53967	141.98741	-136.11812	1628.38770	168.19783	-235.63724	1657.49780	216.25600	1342.30994	1590.55286	195.34853	1309.00513	1657.57642	226.15652	1395.54065	1680.21667	178.50157	1045.68433	1483.84021	247.84355	1058.12671	1539.02515	246.69118	910.85840	1577.24011	254.59251	971.15381	1564.36865	281.48004	899.29633	1542.23450				124.55444	537.64325	1728.49792	76.52123	575.33270	1760.08313	77.91045	619.77966	1764.05249	82.24483	601.69312	1779.77393	75.14420	554.41760	1743.36365	926.16492	517.96442	571.38287	-201.37733	-469.87003	23.68222	143.34735	621.02167	1744.66882										277.58569	424.30246	88.05589	268.97959	775.03241	73.28329	198.38393	466.02985	515.57008	191.52770	730.23547	519.08000	201.62750	508.09927	1067.02356	206.38027	672.46030	1073.18408 
